<mxfile host="Electron" modified="2023-12-25T15:28:19.680Z" agent="Mozilla/5.0 (Macintosh; Intel Mac OS X 10_15_7) AppleWebKit/537.36 (KHTML, like Gecko) draw.io/22.1.11 Chrome/114.0.5735.289 Electron/25.9.8 Safari/537.36" etag="67fARpW1dnEli-a7eWsT" version="22.1.11" type="device">
  <diagram name="Страница — 1" id="QCrGb2w93tzwCZUYAp4L">
    <mxGraphModel dx="954" dy="600" grid="1" gridSize="10" guides="1" tooltips="1" connect="1" arrows="1" fold="1" page="1" pageScale="1" pageWidth="827" pageHeight="1169" math="0" shadow="0">
      <root>
        <mxCell id="0" />
        <mxCell id="1" parent="0" />
        <mxCell id="ihMcbCoakB1ffSBJtQC2-8" style="edgeStyle=orthogonalEdgeStyle;rounded=0;orthogonalLoop=1;jettySize=auto;html=1;exitX=0.5;exitY=1;exitDx=0;exitDy=0;entryX=0.5;entryY=0;entryDx=0;entryDy=0;" edge="1" parent="1" source="ihMcbCoakB1ffSBJtQC2-1" target="ihMcbCoakB1ffSBJtQC2-2">
          <mxGeometry relative="1" as="geometry" />
        </mxCell>
        <mxCell id="ihMcbCoakB1ffSBJtQC2-1" value="START" style="ellipse;whiteSpace=wrap;html=1;" vertex="1" parent="1">
          <mxGeometry x="340" y="50" width="120" height="40" as="geometry" />
        </mxCell>
        <mxCell id="ihMcbCoakB1ffSBJtQC2-9" style="edgeStyle=orthogonalEdgeStyle;rounded=0;orthogonalLoop=1;jettySize=auto;html=1;exitX=0.5;exitY=1;exitDx=0;exitDy=0;entryX=0.5;entryY=0;entryDx=0;entryDy=0;" edge="1" parent="1" source="ihMcbCoakB1ffSBJtQC2-2" target="ihMcbCoakB1ffSBJtQC2-3">
          <mxGeometry relative="1" as="geometry" />
        </mxCell>
        <mxCell id="ihMcbCoakB1ffSBJtQC2-2" value="count&lt;br&gt;string[] originalArray = new string[5];" style="rounded=0;whiteSpace=wrap;html=1;" vertex="1" parent="1">
          <mxGeometry x="290" y="120" width="220" height="70" as="geometry" />
        </mxCell>
        <mxCell id="ihMcbCoakB1ffSBJtQC2-5" style="edgeStyle=orthogonalEdgeStyle;rounded=0;orthogonalLoop=1;jettySize=auto;html=1;exitX=0.5;exitY=1;exitDx=0;exitDy=0;entryX=0.5;entryY=0;entryDx=0;entryDy=0;" edge="1" parent="1" source="ihMcbCoakB1ffSBJtQC2-3" target="ihMcbCoakB1ffSBJtQC2-4">
          <mxGeometry relative="1" as="geometry" />
        </mxCell>
        <mxCell id="ihMcbCoakB1ffSBJtQC2-6" value="YES" style="edgeLabel;html=1;align=center;verticalAlign=middle;resizable=0;points=[];" vertex="1" connectable="0" parent="ihMcbCoakB1ffSBJtQC2-5">
          <mxGeometry x="-0.125" y="-1" relative="1" as="geometry">
            <mxPoint as="offset" />
          </mxGeometry>
        </mxCell>
        <mxCell id="ihMcbCoakB1ffSBJtQC2-12" style="edgeStyle=orthogonalEdgeStyle;rounded=0;orthogonalLoop=1;jettySize=auto;html=1;entryX=0.5;entryY=0;entryDx=0;entryDy=0;exitX=1;exitY=0.5;exitDx=0;exitDy=0;" edge="1" parent="1" source="ihMcbCoakB1ffSBJtQC2-3" target="ihMcbCoakB1ffSBJtQC2-10">
          <mxGeometry relative="1" as="geometry">
            <mxPoint x="440" y="250" as="sourcePoint" />
            <mxPoint x="400" y="480" as="targetPoint" />
            <Array as="points">
              <mxPoint x="560" y="250" />
              <mxPoint x="560" y="430" />
              <mxPoint x="400" y="430" />
            </Array>
          </mxGeometry>
        </mxCell>
        <mxCell id="ihMcbCoakB1ffSBJtQC2-13" value="NO" style="edgeLabel;html=1;align=center;verticalAlign=middle;resizable=0;points=[];" vertex="1" connectable="0" parent="ihMcbCoakB1ffSBJtQC2-12">
          <mxGeometry x="-0.8383" y="1" relative="1" as="geometry">
            <mxPoint y="1" as="offset" />
          </mxGeometry>
        </mxCell>
        <mxCell id="ihMcbCoakB1ffSBJtQC2-3" value="i &amp;lt; originalArray.Length" style="rhombus;whiteSpace=wrap;html=1;" vertex="1" parent="1">
          <mxGeometry x="320" y="210" width="160" height="80" as="geometry" />
        </mxCell>
        <mxCell id="ihMcbCoakB1ffSBJtQC2-7" style="edgeStyle=orthogonalEdgeStyle;rounded=0;orthogonalLoop=1;jettySize=auto;html=1;entryX=0;entryY=0.5;entryDx=0;entryDy=0;exitX=0;exitY=0.5;exitDx=0;exitDy=0;" edge="1" parent="1" source="ihMcbCoakB1ffSBJtQC2-4" target="ihMcbCoakB1ffSBJtQC2-3">
          <mxGeometry relative="1" as="geometry">
            <Array as="points">
              <mxPoint x="270" y="370" />
              <mxPoint x="270" y="250" />
            </Array>
          </mxGeometry>
        </mxCell>
        <mxCell id="ihMcbCoakB1ffSBJtQC2-4" value="Console.Write($&quot;Элемент {i + 1}: &quot;);&lt;br&gt;&amp;nbsp; &amp;nbsp;originalArray[i] = Console.ReadLine();&lt;br&gt;i++" style="rounded=0;whiteSpace=wrap;html=1;" vertex="1" parent="1">
          <mxGeometry x="290" y="330" width="220" height="80" as="geometry" />
        </mxCell>
        <mxCell id="ihMcbCoakB1ffSBJtQC2-17" style="edgeStyle=orthogonalEdgeStyle;rounded=0;orthogonalLoop=1;jettySize=auto;html=1;entryX=0.5;entryY=0;entryDx=0;entryDy=0;" edge="1" parent="1" source="ihMcbCoakB1ffSBJtQC2-10" target="ihMcbCoakB1ffSBJtQC2-14">
          <mxGeometry relative="1" as="geometry" />
        </mxCell>
        <mxCell id="ihMcbCoakB1ffSBJtQC2-10" value="&amp;nbsp;count = 0" style="rounded=0;whiteSpace=wrap;html=1;" vertex="1" parent="1">
          <mxGeometry x="290" y="450" width="220" height="60" as="geometry" />
        </mxCell>
        <mxCell id="ihMcbCoakB1ffSBJtQC2-19" style="edgeStyle=orthogonalEdgeStyle;rounded=0;orthogonalLoop=1;jettySize=auto;html=1;exitX=0.5;exitY=1;exitDx=0;exitDy=0;entryX=0.5;entryY=0;entryDx=0;entryDy=0;" edge="1" parent="1" source="ihMcbCoakB1ffSBJtQC2-14" target="ihMcbCoakB1ffSBJtQC2-18">
          <mxGeometry relative="1" as="geometry" />
        </mxCell>
        <mxCell id="ihMcbCoakB1ffSBJtQC2-20" value="YES" style="edgeLabel;html=1;align=center;verticalAlign=middle;resizable=0;points=[];" vertex="1" connectable="0" parent="ihMcbCoakB1ffSBJtQC2-19">
          <mxGeometry x="-0.0167" relative="1" as="geometry">
            <mxPoint y="1" as="offset" />
          </mxGeometry>
        </mxCell>
        <mxCell id="ihMcbCoakB1ffSBJtQC2-23" style="edgeStyle=orthogonalEdgeStyle;rounded=0;orthogonalLoop=1;jettySize=auto;html=1;exitX=1;exitY=0.5;exitDx=0;exitDy=0;entryX=0.5;entryY=0;entryDx=0;entryDy=0;" edge="1" parent="1" source="ihMcbCoakB1ffSBJtQC2-14" target="ihMcbCoakB1ffSBJtQC2-22">
          <mxGeometry relative="1" as="geometry">
            <Array as="points">
              <mxPoint x="560" y="580" />
              <mxPoint x="560" y="720" />
              <mxPoint x="400" y="720" />
            </Array>
          </mxGeometry>
        </mxCell>
        <mxCell id="ihMcbCoakB1ffSBJtQC2-24" value="NO" style="edgeLabel;html=1;align=center;verticalAlign=middle;resizable=0;points=[];" vertex="1" connectable="0" parent="ihMcbCoakB1ffSBJtQC2-23">
          <mxGeometry x="-0.8178" y="1" relative="1" as="geometry">
            <mxPoint y="1" as="offset" />
          </mxGeometry>
        </mxCell>
        <mxCell id="ihMcbCoakB1ffSBJtQC2-14" value="&amp;nbsp; str.Length &amp;lt;= 3" style="rhombus;whiteSpace=wrap;html=1;" vertex="1" parent="1">
          <mxGeometry x="320" y="540" width="160" height="80" as="geometry" />
        </mxCell>
        <mxCell id="ihMcbCoakB1ffSBJtQC2-21" style="edgeStyle=orthogonalEdgeStyle;rounded=0;orthogonalLoop=1;jettySize=auto;html=1;exitX=0;exitY=0.5;exitDx=0;exitDy=0;entryX=0;entryY=0.5;entryDx=0;entryDy=0;" edge="1" parent="1" source="ihMcbCoakB1ffSBJtQC2-18" target="ihMcbCoakB1ffSBJtQC2-14">
          <mxGeometry relative="1" as="geometry">
            <Array as="points">
              <mxPoint x="270" y="680" />
              <mxPoint x="270" y="580" />
            </Array>
          </mxGeometry>
        </mxCell>
        <mxCell id="ihMcbCoakB1ffSBJtQC2-18" value="count++" style="rounded=0;whiteSpace=wrap;html=1;" vertex="1" parent="1">
          <mxGeometry x="340" y="650" width="120" height="60" as="geometry" />
        </mxCell>
        <mxCell id="ihMcbCoakB1ffSBJtQC2-32" style="edgeStyle=orthogonalEdgeStyle;rounded=0;orthogonalLoop=1;jettySize=auto;html=1;exitX=0.5;exitY=1;exitDx=0;exitDy=0;entryX=0.5;entryY=0;entryDx=0;entryDy=0;" edge="1" parent="1" source="ihMcbCoakB1ffSBJtQC2-22" target="ihMcbCoakB1ffSBJtQC2-25">
          <mxGeometry relative="1" as="geometry" />
        </mxCell>
        <mxCell id="ihMcbCoakB1ffSBJtQC2-22" value="string[] newArray = new string[count]&lt;br&gt;int index = 0" style="rounded=0;whiteSpace=wrap;html=1;" vertex="1" parent="1">
          <mxGeometry x="290" y="740" width="220" height="60" as="geometry" />
        </mxCell>
        <mxCell id="ihMcbCoakB1ffSBJtQC2-27" style="edgeStyle=orthogonalEdgeStyle;rounded=0;orthogonalLoop=1;jettySize=auto;html=1;exitX=0.5;exitY=1;exitDx=0;exitDy=0;entryX=0.5;entryY=0;entryDx=0;entryDy=0;" edge="1" parent="1" source="ihMcbCoakB1ffSBJtQC2-25" target="ihMcbCoakB1ffSBJtQC2-26">
          <mxGeometry relative="1" as="geometry" />
        </mxCell>
        <mxCell id="ihMcbCoakB1ffSBJtQC2-28" value="YES" style="edgeLabel;html=1;align=center;verticalAlign=middle;resizable=0;points=[];" vertex="1" connectable="0" parent="ihMcbCoakB1ffSBJtQC2-27">
          <mxGeometry y="2" relative="1" as="geometry">
            <mxPoint as="offset" />
          </mxGeometry>
        </mxCell>
        <mxCell id="ihMcbCoakB1ffSBJtQC2-33" style="edgeStyle=orthogonalEdgeStyle;rounded=0;orthogonalLoop=1;jettySize=auto;html=1;exitX=1;exitY=0.5;exitDx=0;exitDy=0;entryX=0.5;entryY=0;entryDx=0;entryDy=0;" edge="1" parent="1" source="ihMcbCoakB1ffSBJtQC2-25" target="ihMcbCoakB1ffSBJtQC2-31">
          <mxGeometry relative="1" as="geometry">
            <mxPoint x="610" y="910" as="targetPoint" />
          </mxGeometry>
        </mxCell>
        <mxCell id="ihMcbCoakB1ffSBJtQC2-34" value="NO" style="edgeLabel;html=1;align=center;verticalAlign=middle;resizable=0;points=[];" vertex="1" connectable="0" parent="ihMcbCoakB1ffSBJtQC2-33">
          <mxGeometry x="-0.1875" relative="1" as="geometry">
            <mxPoint as="offset" />
          </mxGeometry>
        </mxCell>
        <mxCell id="ihMcbCoakB1ffSBJtQC2-25" value="str.Length &amp;lt;= 3" style="rhombus;whiteSpace=wrap;html=1;" vertex="1" parent="1">
          <mxGeometry x="320" y="840" width="160" height="80" as="geometry" />
        </mxCell>
        <mxCell id="ihMcbCoakB1ffSBJtQC2-29" style="edgeStyle=orthogonalEdgeStyle;rounded=0;orthogonalLoop=1;jettySize=auto;html=1;exitX=0;exitY=0.5;exitDx=0;exitDy=0;entryX=0;entryY=0.5;entryDx=0;entryDy=0;" edge="1" parent="1" source="ihMcbCoakB1ffSBJtQC2-26" target="ihMcbCoakB1ffSBJtQC2-25">
          <mxGeometry relative="1" as="geometry">
            <Array as="points">
              <mxPoint x="270" y="990" />
              <mxPoint x="270" y="880" />
            </Array>
          </mxGeometry>
        </mxCell>
        <mxCell id="ihMcbCoakB1ffSBJtQC2-26" value="newArray[index] = str&lt;br&gt;&amp;nbsp; index++" style="rounded=0;whiteSpace=wrap;html=1;" vertex="1" parent="1">
          <mxGeometry x="340" y="960" width="120" height="60" as="geometry" />
        </mxCell>
        <mxCell id="ihMcbCoakB1ffSBJtQC2-37" style="edgeStyle=orthogonalEdgeStyle;rounded=0;orthogonalLoop=1;jettySize=auto;html=1;entryX=0.5;entryY=0;entryDx=0;entryDy=0;exitX=0.564;exitY=0.829;exitDx=0;exitDy=0;exitPerimeter=0;" edge="1" parent="1" source="ihMcbCoakB1ffSBJtQC2-31" target="ihMcbCoakB1ffSBJtQC2-36">
          <mxGeometry relative="1" as="geometry">
            <Array as="points">
              <mxPoint x="560" y="978" />
              <mxPoint x="560" y="1040" />
              <mxPoint x="400" y="1040" />
            </Array>
          </mxGeometry>
        </mxCell>
        <mxCell id="ihMcbCoakB1ffSBJtQC2-31" value="newArray" style="shape=document;whiteSpace=wrap;html=1;boundedLbl=1;" vertex="1" parent="1">
          <mxGeometry x="500" y="920" width="110" height="70" as="geometry" />
        </mxCell>
        <mxCell id="ihMcbCoakB1ffSBJtQC2-36" value="END" style="ellipse;whiteSpace=wrap;html=1;" vertex="1" parent="1">
          <mxGeometry x="340" y="1070" width="120" height="60" as="geometry" />
        </mxCell>
      </root>
    </mxGraphModel>
  </diagram>
</mxfile>
